<svg version="1.1" xmlns="http://www.w3.org/2000/svg" style="display: block;" viewBox="0 0 2048 2048" width="1024" height="1024" preserveAspectRatio="none">
<path transform="translate(0,0)" fill="rgb(52,52,51)" d="M 460.683 552.38 C 480.531 550.508 518.04 551.589 539.245 551.603 L 686.498 551.711 L 900.071 551.595 C 935.598 551.587 978.574 550.494 1013.3 552.041 L 937.93 726.646 C 925.695 725.493 904.226 726.124 891.115 726.111 L 805.004 726.089 L 530.538 726.234 C 531.257 745.223 530.624 767.684 530.614 786.922 C 530.442 834.602 530.535 882.281 530.892 929.959 C 552.389 928.969 579.689 929.712 601.522 929.731 L 728.986 929.912 C 729.159 910.639 729.571 891.369 730.22 872.106 L 808.888 974.734 C 817.414 985.785 838.122 1010.5 844.315 1020.68 C 826.852 1041.33 808.752 1065.25 792.108 1086.67 C 770.721 1113.76 749.141 1140.69 727.371 1167.48 C 728.231 1147.55 726.342 1122.65 727.849 1104.27 L 530.362 1104.36 C 532.035 1233.82 531.036 1366.62 530.749 1496.24 C 510.656 1495.24 484.301 1495.99 463.483 1495.99 L 341.35 1496.31 C 342.517 1425.62 341.67 1352.75 341.645 1281.86 L 341.652 907.634 L 341.671 753.207 C 341.649 730.554 340.397 686.08 342.979 665.826 C 345.93 642.359 355.243 620.147 369.911 601.593 C 392.424 573.083 424.799 556.492 460.683 552.38 z"/>
<path transform="translate(0,0)" fill="rgb(52,52,51)" d="M 1122.81 551.219 C 1175.9 552.458 1258.74 550.583 1314.62 552.183 C 1316.67 552.241 1319.66 559.483 1320.68 561.953 C 1336.66 600.533 1351.95 639.555 1368.04 678.072 L 1519.09 1043 L 1637.54 1329.92 C 1660.95 1385.01 1683.78 1440.34 1706.03 1495.91 C 1697.35 1496.1 1688.31 1496.2 1679.63 1496.06 C 1622.3 1495.13 1564.42 1497.06 1507.14 1495.91 C 1505.11 1491.09 1503.14 1486.25 1501.22 1481.38 C 1499.19 1477.72 1493.55 1462.91 1491.82 1458.54 C 1486.04 1443.85 1480.13 1429.21 1474.11 1414.62 L 1441.1 1334.03 C 1434.81 1318.5 1425.66 1296.71 1420.92 1281.01 C 1324.61 1280.56 1222.99 1279.76 1126.95 1281.33 C 1138.59 1252.26 1151.88 1222.68 1163.95 1193.64 C 1175.97 1164.71 1188.25 1133.51 1201.38 1105.22 C 1216.9 1104.69 1234.68 1105.32 1250.42 1105.26 C 1283 1104.97 1315.57 1104.88 1348.15 1104.99 C 1339.77 1087.2 1329.91 1061.88 1322.54 1043.45 L 1285.75 951.633 L 1193.97 726.508 C 1170.54 668.381 1147.56 608.738 1122.81 551.219 z"/>
<path transform="translate(0,0)" fill="rgb(52,52,51)" d="M 1092.1 643.505 C 1095.41 646.422 1187.13 846.068 1197.92 869.701 C 1182.75 902.01 1167.47 941.143 1153.25 974.46 L 1061.72 1190.61 C 1019.45 1291.78 973.184 1394.17 933.022 1496.01 C 905.809 1494.62 864.167 1496.03 836.017 1495.93 C 801.381 1496.01 765.474 1496.54 730.941 1495.74 C 733.438 1486.74 739.714 1473.04 743.521 1464.12 L 764.788 1414.01 C 791.911 1349.04 819.39 1284.22 847.225 1219.56 L 1024.89 801.345 C 1047.25 749.068 1069.15 695.384 1092.1 643.505 z"/>
</svg>