<svg version="1.1" xmlns="http://www.w3.org/2000/svg" style="display: block;" viewBox="0 0 2048 2048" width="1024" height="1024" preserveAspectRatio="none">
<path transform="translate(0,0)" fill="rgb(33,112,177)" d="M 660.296 552.5 L 1012.56 553.166 C 1005.6 564.305 997.641 587.457 992.241 600.22 C 977.477 635.115 961.562 669.371 946.567 704.15 C 943.758 710.664 941.733 717.089 938.294 723.372 C 931.358 726.188 839.904 725.184 827.033 725.213 L 530.023 725.32 C 531.049 792.616 529.883 862.417 530.034 930.084 L 730.865 930.019 C 730.276 915.96 730.441 889.596 731.127 875.505 L 732.1 874.925 C 734.564 877.551 736.037 881.087 738.332 884.17 C 768.511 924.716 800.528 963.749 831.06 1004.01 C 835.467 1009.82 839.42 1015.02 842.653 1021.56 C 838.413 1027.72 831.661 1035.03 826.997 1041.19 C 817.221 1054.1 807.136 1066.6 796.956 1079.19 L 728.984 1164.04 C 728.965 1157.61 729.442 1106.91 727.957 1103.59 C 662.398 1103.27 595.477 1102.54 529.986 1103.18 C 529.282 1233.79 529.515 1364.39 530.686 1495 C 471.234 1496.57 401.408 1496.24 341.909 1495.13 C 342.719 1424.43 342.018 1352.56 342.004 1281.74 L 342.004 903.645 L 341.928 748.295 C 341.91 688.54 334.98 637.828 381.18 590.612 C 423.089 547.782 468.257 553.179 522.303 552.961 L 660.296 552.5 z"/>
<path transform="translate(0,0)" fill="rgb(73,173,94)" d="M 1125.92 552.358 C 1144.06 553.199 1168.47 552.384 1187.17 552.341 L 1315.74 552.205 C 1319.99 560.696 1325.61 576.473 1329.36 585.877 L 1354.74 648.919 L 1433.85 840.547 L 1705.49 1495.04 L 1584.78 1495.23 C 1560.57 1495.23 1530.97 1495.95 1507.14 1494.59 C 1505.06 1489.63 1503.04 1484.64 1501.08 1479.63 C 1493.75 1463.69 1485.3 1440.83 1478.53 1424.17 L 1420.95 1280.53 C 1400.8 1279.02 1365.36 1280.17 1343.81 1280.17 L 1200.5 1280.21 C 1176.7 1280.29 1153.16 1281.23 1129.31 1280.48 C 1131.39 1273.14 1135.46 1264.59 1138.27 1257.28 C 1145.63 1238.11 1154.19 1219.56 1162.14 1200.64 L 1188.07 1138.57 C 1192.46 1128.15 1197.03 1116.1 1202.2 1106.18 C 1216.12 1105.07 1236.54 1105.67 1250.87 1105.69 C 1283.49 1105.9 1316.12 1105.85 1348.74 1105.54 C 1346.36 1093.85 1338.09 1079.89 1333.57 1068.36 C 1325.09 1046.73 1316.01 1025.27 1307.37 1003.71 L 1181.34 691.592 C 1168.79 661.389 1156.51 631.076 1144.49 600.658 C 1139.88 589.21 1128.59 563.733 1125.92 552.358 z"/>
<path transform="translate(0,0)" fill="rgb(73,173,94)" d="M 1091.39 646.632 C 1096.64 652.155 1123 710.865 1127.7 720.896 L 1196.65 868.017 L 1032.21 1257.44 C 1008.84 1311.24 986.118 1365.33 964.055 1419.68 C 956.073 1439 938.471 1477.12 933.797 1495.1 L 837.999 1495.07 C 802.841 1495.11 767.684 1494.85 732.53 1494.29 C 734.215 1485.36 752.895 1443.29 757.676 1432.17 C 773.765 1394.76 789.66 1357.26 805.362 1319.68 L 988.15 889.716 C 1022.53 809.641 1058.88 727.285 1091.39 646.632 z"/>
</svg>